<?xml version="1.0" encoding="UTF-8"?>
<!-- Generator: Adobe Illustrator 14.0.0, SVG Export Plug-In . SVG Version: 6.00 Build 43363)  -->
<!DOCTYPE svg PUBLIC "-//W3C//DTD SVG 1.1//EN" "http://www.w3.org/Graphics/SVG/1.1/DTD/svg11.dtd">
<svg version="1.1" id="Capa_1" xmlns="http://www.w3.org/2000/svg" xmlns:xlink="http://www.w3.org/1999/xlink" x="0px" y="0px" width="159.217px" height="26.611px" viewBox="0 0 159.217 26.611" enable-background="new 0 0 159.217 26.611" xml:space="preserve">
<g>
	<path fill="#6E6E6E" d="M27.78,18.745c-0.24-0.3-0.542-0.535-0.906-0.707c-0.364-0.173-0.79-0.259-1.278-0.259   c-0.4,0-0.772,0.078-1.116,0.233c-0.344,0.156-0.612,0.414-0.804,0.775h-0.024v-0.841h-1.296v8.496h1.368v-3.097h0.024   c0.104,0.168,0.234,0.314,0.39,0.438c0.156,0.124,0.326,0.227,0.51,0.306c0.184,0.08,0.376,0.139,0.576,0.174   c0.2,0.037,0.4,0.055,0.6,0.055c0.456,0,0.852-0.09,1.188-0.27c0.336-0.181,0.614-0.42,0.834-0.721   c0.22-0.3,0.384-0.646,0.492-1.037c0.108-0.393,0.162-0.797,0.162-1.213c0-0.455-0.06-0.884-0.18-1.283   C28.2,19.396,28.02,19.046,27.78,18.745z M27.042,21.854c-0.06,0.26-0.16,0.491-0.3,0.696c-0.14,0.203-0.318,0.369-0.534,0.498   c-0.216,0.127-0.48,0.191-0.792,0.191c-0.28,0-0.526-0.056-0.738-0.168c-0.212-0.111-0.394-0.264-0.546-0.456   c-0.152-0.192-0.266-0.422-0.342-0.69c-0.076-0.268-0.114-0.558-0.114-0.869c0-0.664,0.146-1.196,0.438-1.596   c0.292-0.4,0.726-0.601,1.302-0.601c0.28,0,0.528,0.062,0.744,0.187c0.216,0.123,0.396,0.287,0.54,0.492   c0.144,0.203,0.252,0.438,0.324,0.701c0.072,0.264,0.108,0.536,0.108,0.816C27.132,21.327,27.102,21.593,27.042,21.854z"/>
	<path fill="#1B3E9E" d="M151.987,2.435c-0.657-1.963-1.015-2.428-2.886-2.428l-4.555-0.003l-7.295,23.831h3.717l1.563-5.145h8.673   l1.57,5.145h6.442L151.987,2.435z M143.578,15.201l3.253-10.872l3.299,10.872H143.578z"/>
	<path fill="#6E6E6E" d="M34.806,18.703c-0.268-0.288-0.596-0.514-0.984-0.678c-0.388-0.164-0.83-0.246-1.326-0.246   s-0.938,0.082-1.326,0.246c-0.388,0.164-0.716,0.39-0.984,0.678s-0.472,0.632-0.612,1.032c-0.14,0.4-0.21,0.836-0.21,1.309   c0,0.479,0.07,0.92,0.21,1.319c0.14,0.4,0.344,0.744,0.612,1.032s0.596,0.514,0.984,0.678c0.388,0.164,0.83,0.246,1.326,0.246   s0.938-0.082,1.326-0.246c0.388-0.164,0.716-0.39,0.984-0.678s0.472-0.632,0.612-1.032c0.14-0.399,0.21-0.84,0.21-1.319   c0-0.473-0.07-0.908-0.21-1.309S35.074,18.991,34.806,18.703z M34.158,21.841c-0.068,0.261-0.174,0.494-0.318,0.703   c-0.144,0.207-0.328,0.375-0.552,0.504c-0.224,0.127-0.488,0.191-0.792,0.191s-0.568-0.064-0.792-0.191   c-0.224-0.129-0.408-0.297-0.552-0.504c-0.144-0.209-0.25-0.442-0.318-0.703c-0.068-0.26-0.102-0.525-0.102-0.797   c0-0.265,0.034-0.529,0.102-0.793s0.174-0.498,0.318-0.701c0.144-0.205,0.328-0.371,0.552-0.498   c0.224-0.129,0.488-0.192,0.792-0.192s0.568,0.063,0.792,0.192c0.224,0.127,0.408,0.293,0.552,0.498   c0.144,0.203,0.25,0.438,0.318,0.701c0.068,0.264,0.102,0.528,0.102,0.793C34.26,21.315,34.226,21.581,34.158,21.841z"/>
	<path fill="#6E6E6E" d="M6.57,20.365c-0.14-0.196-0.314-0.37-0.522-0.522c-0.208-0.151-0.452-0.271-0.732-0.359   c-0.112-0.031-0.298-0.082-0.558-0.15c-0.26-0.067-0.526-0.138-0.798-0.209c-0.272-0.072-0.518-0.139-0.738-0.199   c-0.22-0.06-0.346-0.094-0.378-0.102c-0.304-0.088-0.55-0.218-0.738-0.39c-0.188-0.173-0.282-0.41-0.282-0.714   c0-0.217,0.05-0.396,0.15-0.541c0.1-0.144,0.226-0.258,0.378-0.342c0.152-0.084,0.32-0.144,0.504-0.18   c0.184-0.035,0.364-0.054,0.54-0.054c0.52,0,0.948,0.114,1.284,0.342s0.524,0.618,0.564,1.17h1.5c0-0.448-0.088-0.842-0.264-1.182   c-0.176-0.341-0.414-0.626-0.714-0.858c-0.3-0.232-0.648-0.406-1.044-0.521c-0.396-0.116-0.818-0.174-1.266-0.174   c-0.384,0-0.764,0.049-1.14,0.149s-0.712,0.254-1.008,0.462c-0.296,0.209-0.534,0.471-0.714,0.786   c-0.18,0.315-0.27,0.69-0.27,1.122c0,0.225,0.03,0.443,0.09,0.66c0.06,0.216,0.162,0.42,0.306,0.611   c0.144,0.192,0.338,0.367,0.582,0.522c0.244,0.156,0.55,0.282,0.918,0.378c0.592,0.16,1.09,0.29,1.494,0.391   c0.404,0.1,0.758,0.205,1.062,0.317c0.176,0.063,0.338,0.174,0.486,0.33c0.148,0.155,0.222,0.397,0.222,0.726   c0,0.16-0.032,0.318-0.096,0.475c-0.064,0.156-0.168,0.294-0.312,0.414c-0.144,0.119-0.332,0.218-0.564,0.294   C4.28,23.093,4,23.132,3.672,23.132c-0.304,0-0.586-0.034-0.846-0.103c-0.26-0.067-0.49-0.176-0.69-0.323   c-0.2-0.148-0.356-0.338-0.468-0.57C1.556,21.903,1.5,21.624,1.5,21.296H0c0.008,0.527,0.108,0.985,0.3,1.373   c0.192,0.389,0.448,0.707,0.768,0.955s0.696,0.432,1.128,0.551c0.432,0.121,0.892,0.181,1.38,0.181c0.424,0,0.84-0.05,1.248-0.149   c0.408-0.101,0.771-0.259,1.092-0.475c0.32-0.217,0.578-0.494,0.774-0.834c0.196-0.34,0.294-0.75,0.294-1.23   c0-0.224-0.034-0.447-0.102-0.672C6.814,20.771,6.71,20.562,6.57,20.365z"/>
	<path fill="#6E6E6E" d="M12.18,21.548c0,0.24-0.026,0.463-0.078,0.672c-0.052,0.208-0.138,0.386-0.258,0.533   c-0.12,0.148-0.276,0.267-0.468,0.354s-0.432,0.132-0.72,0.132c-0.376,0-0.668-0.111-0.876-0.336   c-0.208-0.224-0.312-0.607-0.312-1.152v-3.804H8.1v3.937c0,0.815,0.182,1.426,0.546,1.83c0.364,0.403,0.954,0.605,1.77,0.605   c0.344,0,0.682-0.094,1.014-0.281c0.332-0.188,0.582-0.438,0.75-0.75h0.024v0.863h1.344v-6.204H12.18V21.548z"/>
	<path fill="#6E6E6E" d="M20.448,18.745c-0.24-0.3-0.542-0.535-0.906-0.707c-0.364-0.173-0.79-0.259-1.278-0.259   c-0.4,0-0.772,0.078-1.116,0.233c-0.344,0.156-0.612,0.414-0.804,0.775H16.32v-0.841h-1.296v8.496h1.368v-3.097h0.024   c0.104,0.168,0.234,0.314,0.39,0.438c0.156,0.124,0.326,0.227,0.51,0.306c0.184,0.08,0.376,0.139,0.576,0.174   c0.2,0.037,0.4,0.055,0.6,0.055c0.456,0,0.852-0.09,1.188-0.27c0.336-0.181,0.614-0.42,0.834-0.721   c0.22-0.3,0.384-0.646,0.492-1.037c0.108-0.393,0.162-0.797,0.162-1.213c0-0.455-0.06-0.884-0.18-1.283   C20.868,19.396,20.688,19.046,20.448,18.745z M19.71,21.854c-0.06,0.26-0.16,0.491-0.3,0.696c-0.14,0.203-0.318,0.369-0.534,0.498   c-0.216,0.127-0.48,0.191-0.792,0.191c-0.28,0-0.526-0.056-0.738-0.168c-0.212-0.111-0.394-0.264-0.546-0.456   c-0.152-0.192-0.266-0.422-0.342-0.69c-0.076-0.268-0.114-0.558-0.114-0.869c0-0.664,0.146-1.196,0.438-1.596   c0.292-0.4,0.726-0.601,1.302-0.601c0.28,0,0.528,0.062,0.744,0.187c0.216,0.123,0.396,0.287,0.54,0.492   c0.144,0.203,0.252,0.438,0.324,0.701c0.072,0.264,0.108,0.536,0.108,0.816C19.8,21.327,19.77,21.593,19.71,21.854z"/>
	<path fill="#1B3E9E" d="M95.731,9.349l1.164-1.727c2.464-3.658,0.768-7.623-4.095-7.623H82.423v23.843h10.011   C101.238,23.842,103.89,13.587,95.731,9.349z M89.722,20.642H88.03V3.11h3.058c1.474,0,2.754,1.224,2.754,2.681   c0,0.521-0.107,0.988-0.61,1.731l-1.988,2.969c2.076,0.502,3.463,2.079,3.463,5.036C94.707,19.11,92.557,20.642,89.722,20.642z"/>
	<path fill="#6E6E6E" d="M39.887,17.779c-0.208,0-0.412,0.04-0.612,0.12c-0.2,0.08-0.382,0.186-0.546,0.318   c-0.164,0.132-0.304,0.277-0.42,0.438c-0.116,0.16-0.194,0.324-0.234,0.492h-0.024v-1.2h-1.284v6.204h1.368v-2.952   c0-0.344,0.044-0.647,0.132-0.911c0.088-0.265,0.208-0.486,0.36-0.666c0.152-0.181,0.33-0.316,0.534-0.408   c0.204-0.092,0.422-0.139,0.654-0.139c0.096,0,0.194,0.006,0.294,0.018c0.1,0.013,0.198,0.027,0.294,0.043v-1.32   c-0.064-0.008-0.126-0.016-0.186-0.023S40.047,17.779,39.887,17.779z"/>
	<path fill="#1B3E9E" d="M115.894,9.349l1.163-1.727c2.465-3.658,0.769-7.623-4.094-7.623h-10.376v23.843h10.009   C121.401,23.842,124.054,13.587,115.894,9.349z M109.885,20.642h-1.693V3.11h3.057c1.474,0,2.756,1.224,2.756,2.681   c0,0.521-0.106,0.988-0.61,1.731l-1.986,2.969c2.073,0.502,3.462,2.079,3.462,5.036C114.87,19.11,112.719,20.642,109.885,20.642z"/>
	<path fill="#6E6E6E" d="M68.003,18.745c-0.24-0.3-0.542-0.535-0.906-0.707c-0.364-0.173-0.79-0.259-1.278-0.259   c-0.176,0-0.354,0.022-0.534,0.065c-0.18,0.045-0.352,0.108-0.516,0.193c-0.164,0.084-0.314,0.186-0.45,0.305   c-0.136,0.121-0.252,0.257-0.348,0.408h-0.024v-3.168h-1.368v8.568h1.296V23.3h0.024c0.104,0.207,0.234,0.375,0.39,0.504   c0.156,0.128,0.33,0.232,0.522,0.312c0.192,0.08,0.394,0.134,0.606,0.162c0.211,0.028,0.422,0.042,0.63,0.042   c0.456,0,0.852-0.09,1.188-0.27c0.336-0.181,0.614-0.42,0.834-0.721c0.22-0.3,0.384-0.646,0.492-1.037   c0.108-0.393,0.162-0.797,0.162-1.213c0-0.455-0.06-0.884-0.18-1.283C68.423,19.396,68.243,19.046,68.003,18.745z M67.265,21.854   c-0.06,0.26-0.16,0.491-0.3,0.696c-0.14,0.203-0.318,0.369-0.534,0.498c-0.216,0.127-0.48,0.191-0.792,0.191   c-0.28,0-0.526-0.056-0.738-0.168c-0.212-0.111-0.394-0.264-0.546-0.456c-0.152-0.192-0.266-0.422-0.342-0.69   c-0.076-0.268-0.114-0.558-0.114-0.869c0-0.664,0.146-1.196,0.438-1.596c0.292-0.4,0.726-0.601,1.302-0.601   c0.28,0,0.528,0.062,0.744,0.187c0.216,0.123,0.396,0.287,0.54,0.492c0.144,0.203,0.252,0.438,0.324,0.701   c0.072,0.264,0.108,0.536,0.108,0.816C67.355,21.327,67.325,21.593,67.265,21.854z"/>
	<path fill="#6E6E6E" d="M72.263,22.579h-0.024l-1.62-4.632h-1.5l2.352,6.181l-0.156,0.479c-0.04,0.136-0.084,0.256-0.132,0.36   c-0.048,0.104-0.106,0.193-0.174,0.27s-0.154,0.134-0.258,0.174s-0.236,0.061-0.396,0.061c-0.112,0-0.22-0.01-0.324-0.03   c-0.104-0.021-0.212-0.038-0.324-0.054v1.152c0.312,0.047,0.628,0.071,0.948,0.071c0.36,0,0.656-0.058,0.888-0.174   s0.426-0.272,0.582-0.468c0.156-0.196,0.288-0.422,0.396-0.678c0.108-0.257,0.218-0.525,0.33-0.805l2.412-6.54h-1.428   L72.263,22.579z"/>
	<path fill="#6E6E6E" d="M56.351,18.751h-0.024c-0.104-0.168-0.234-0.313-0.39-0.438c-0.156-0.124-0.326-0.227-0.51-0.307   c-0.184-0.079-0.376-0.138-0.576-0.174c-0.2-0.035-0.396-0.054-0.588-0.054c-0.336,0-0.666,0.062-0.99,0.187   c-0.324,0.123-0.612,0.317-0.864,0.582c-0.252,0.264-0.454,0.6-0.606,1.008s-0.228,0.892-0.228,1.451   c0,0.465,0.06,0.898,0.18,1.303s0.3,0.754,0.54,1.05c0.24,0.296,0.542,0.53,0.906,0.702s0.79,0.258,1.278,0.258   c0.392,0,0.764-0.078,1.116-0.234s0.62-0.414,0.804-0.773h0.024v0.84h1.296v-8.568h-1.368V18.751z M56.297,21.841   c-0.068,0.261-0.172,0.494-0.312,0.703c-0.14,0.207-0.32,0.375-0.54,0.504c-0.22,0.127-0.482,0.191-0.786,0.191   c-0.296,0-0.552-0.061-0.768-0.18c-0.216-0.12-0.394-0.28-0.534-0.48c-0.14-0.199-0.244-0.428-0.312-0.684   c-0.068-0.256-0.102-0.516-0.102-0.78c0-0.28,0.03-0.554,0.09-0.821c0.06-0.269,0.16-0.508,0.3-0.721   c0.14-0.212,0.32-0.384,0.54-0.516c0.22-0.133,0.49-0.198,0.81-0.198c0.528,0,0.946,0.192,1.254,0.576   c0.308,0.384,0.462,0.92,0.462,1.608C56.399,21.315,56.365,21.581,56.297,21.841z"/>
	<path fill="#6E6E6E" d="M43.043,16.087h-1.368v1.86h-1.032v1.021h1.032v3.66c0.008,0.256,0.034,0.483,0.078,0.684   c0.044,0.199,0.128,0.365,0.252,0.498c0.124,0.132,0.296,0.232,0.516,0.3c0.22,0.067,0.51,0.103,0.87,0.103   c0.152,0,0.3-0.009,0.444-0.024c0.144-0.017,0.292-0.032,0.444-0.048v-1.057c-0.096,0.024-0.192,0.039-0.288,0.043   c-0.096,0.004-0.192,0.006-0.288,0.006c-0.152,0-0.272-0.019-0.36-0.055c-0.088-0.035-0.154-0.09-0.198-0.162   c-0.044-0.072-0.072-0.16-0.084-0.264c-0.012-0.104-0.018-0.229-0.018-0.372v-3.312h1.236v-1.021h-1.236V16.087z"/>
	<path fill="#6E6E6E" d="M50.184,18.896c-0.256-0.336-0.578-0.605-0.966-0.811c-0.388-0.203-0.826-0.306-1.314-0.306   c-0.464,0-0.88,0.089-1.248,0.265s-0.682,0.414-0.942,0.713c-0.26,0.301-0.46,0.648-0.6,1.045c-0.14,0.396-0.21,0.814-0.21,1.254   c0,0.479,0.066,0.92,0.198,1.32c0.132,0.399,0.328,0.743,0.588,1.031c0.26,0.288,0.578,0.512,0.954,0.672   c0.376,0.16,0.808,0.24,1.296,0.24c0.336,0,0.658-0.046,0.966-0.139c0.308-0.092,0.586-0.228,0.834-0.407   c0.248-0.181,0.46-0.401,0.636-0.666c0.176-0.265,0.3-0.563,0.372-0.899h-1.296c-0.12,0.344-0.302,0.602-0.546,0.773   s-0.566,0.258-0.966,0.258c-0.288,0-0.536-0.05-0.744-0.15c-0.208-0.1-0.38-0.233-0.516-0.401   c-0.136-0.168-0.238-0.364-0.306-0.588c-0.068-0.224-0.102-0.456-0.102-0.696h4.56c0.056-0.464,0.026-0.914-0.09-1.35   C50.625,19.617,50.439,19.231,50.184,18.896z M46.271,20.503c0.008-0.231,0.054-0.447,0.138-0.647s0.196-0.374,0.336-0.522   c0.14-0.147,0.308-0.264,0.504-0.348c0.196-0.084,0.414-0.126,0.654-0.126c0.232,0,0.442,0.046,0.63,0.138s0.348,0.213,0.48,0.36   c0.132,0.147,0.236,0.322,0.312,0.522c0.076,0.199,0.122,0.408,0.138,0.623H46.271z"/>
	<path fill="#1B3E9E" d="M136.279,0l-5.388,18.103l-4.513-14.984C125.53,0.419,125.102,0,123.476,0l-4.211,0.003l7.792,23.827   l5.721,0.003L140.042,0H136.279z"/>
</g>
</svg>