<?xml version="1.0" encoding="UTF-8"?>
<!-- Generator: Adobe Illustrator 16.0.0, SVG Export Plug-In . SVG Version: 6.00 Build 0)  -->
<!DOCTYPE svg PUBLIC "-//W3C//DTD SVG 1.1//EN" "http://www.w3.org/Graphics/SVG/1.1/DTD/svg11.dtd">
<svg version="1.1" id="Capa_1" xmlns="http://www.w3.org/2000/svg" xmlns:xlink="http://www.w3.org/1999/xlink" x="0px" y="0px" width="119px" height="44px" viewBox="0 0 119 44" enable-background="new 0 0 119 44" xml:space="preserve">
<g>
	<path fill="#66B042" d="M29.264,4.044l-5.86,27.712H17.31L9.703,12.312H9.625L5.667,31.756H0L5.822,4.044h6.288l7.529,19.718h0.078   l3.958-19.718H29.264z M30.739,11.69l-4.231,20.065h5.513l4.27-20.065H30.739z M36.911,8.585l1.009-4.541h-5.55L31.36,8.585H36.911   z M103.863,23.412c0-0.104,0.012-0.221,0.038-0.35h14.788c0.207-1.113,0.311-2.16,0.311-3.144c0-1.45-0.228-2.723-0.679-3.823   c-0.453-1.1-1.087-2.019-1.902-2.756c-0.815-0.737-1.798-1.287-2.949-1.649c-1.152-0.362-2.427-0.544-3.823-0.544   c-1.708,0-3.248,0.344-4.619,1.029c-1.372,0.686-2.529,1.604-3.474,2.755c-0.945,1.152-1.676,2.471-2.193,3.959   c-0.518,1.488-0.776,3.034-0.776,4.638c0,1.449,0.214,2.719,0.641,3.805s1.029,1.998,1.805,2.736   c0.776,0.736,1.714,1.287,2.814,1.648c1.1,0.363,2.321,0.545,3.667,0.545c1.449,0,2.724-0.143,3.823-0.428s2.063-0.717,2.892-1.301   c0.828-0.582,1.54-1.299,2.136-2.154c0.594-0.854,1.111-1.848,1.552-2.988h-5.512c-0.207,0.311-0.434,0.635-0.679,0.971   c-0.246,0.336-0.531,0.635-0.854,0.893c-0.323,0.26-0.698,0.473-1.125,0.641c-0.427,0.17-0.912,0.252-1.456,0.252   c-1.501,0-2.613-0.361-3.337-1.086c-0.725-0.725-1.087-1.67-1.087-2.834v-0.504V23.412 M113.547,18.036   c0.09,0.505,0.136,1.016,0.136,1.533h-9.198c0.206-0.569,0.459-1.112,0.757-1.63c0.297-0.518,0.666-0.97,1.105-1.358   s0.957-0.699,1.553-0.932c0.595-0.232,1.281-0.349,2.057-0.349c0.802,0,1.449,0.123,1.941,0.369   c0.491,0.246,0.866,0.576,1.125,0.99C113.281,17.072,113.455,17.532,113.547,18.036 M38.773,11.69L34.62,31.756h5.473l2.251-10.751   c0.129-0.621,0.335-1.254,0.62-1.901s0.641-1.235,1.068-1.766c0.427-0.53,0.932-0.971,1.514-1.32   c0.583-0.35,1.235-0.524,1.96-0.524c0.699,0,1.274,0.208,1.727,0.622s0.68,0.918,0.68,1.514c0,0.44-0.052,0.919-0.156,1.437   l-2.64,12.691h5.55l2.251-10.751c0.129-0.621,0.335-1.254,0.621-1.901c0.285-0.647,0.64-1.235,1.067-1.766   c0.427-0.53,0.932-0.971,1.514-1.32c0.582-0.35,1.235-0.524,1.96-0.524c0.698,0,1.274,0.208,1.727,0.622   c0.453,0.414,0.68,0.918,0.68,1.514c0,0.44-0.053,0.919-0.155,1.437l-2.64,12.691h5.513l2.484-11.799   c0.129-0.595,0.258-1.209,0.388-1.844c0.129-0.633,0.194-1.261,0.194-1.882c0-0.854-0.169-1.604-0.505-2.25   c-0.337-0.647-0.79-1.178-1.358-1.592c-0.57-0.413-1.223-0.724-1.961-0.931c-0.737-0.207-1.494-0.311-2.271-0.311   c-0.647,0-1.3,0.084-1.96,0.253c-0.66,0.168-1.288,0.407-1.883,0.718c-0.596,0.31-1.152,0.679-1.669,1.106   c-0.518,0.427-0.945,0.9-1.281,1.417c-0.233-1.242-0.79-2.134-1.669-2.678c-0.88-0.543-1.941-0.815-3.182-0.815   c-1.475,0-2.809,0.271-3.999,0.815c-1.19,0.544-2.2,1.398-3.027,2.562h-0.078l0.621-2.833H38.773z M72.589,0.746l-3.616,28.078   l5.03-0.391l0.414-3.186l0.077-0.006c0.599,1.354,1.492,2.246,2.681,2.672c1.188,0.426,2.479,0.586,3.871,0.477   c1.702-0.133,3.171-0.609,4.405-1.432c1.233-0.824,2.243-1.855,3.029-3.098c0.785-1.242,1.338-2.634,1.66-4.178   c0.321-1.544,0.422-3.089,0.302-4.637c-0.091-1.161-0.312-2.247-0.663-3.258c-0.351-1.01-0.847-1.881-1.487-2.609   s-1.43-1.283-2.368-1.665s-2.053-0.522-3.342-0.422c-1.315,0.102-2.401,0.401-3.259,0.896c-0.856,0.494-1.675,1.239-2.454,2.234   l-0.077,0.006l1.292-9.911L72.589,0.746z M78.018,12.471c0.703-0.625,1.597-0.981,2.681-1.065c1.419-0.111,2.458,0.237,3.118,1.042   c0.659,0.806,1.038,1.84,1.137,3.104c0.066,0.851,0.027,1.775-0.115,2.773c-0.144,0.997-0.421,1.933-0.833,2.81   c-0.412,0.875-0.965,1.612-1.658,2.211c-0.692,0.6-1.568,0.939-2.626,1.021c-1.264,0.1-2.274-0.219-3.032-0.951   c-0.758-0.732-1.186-1.718-1.281-2.957c-0.068-0.877-0.032-1.827,0.109-2.85c0.141-1.023,0.417-1.979,0.828-2.868   C76.755,13.854,77.312,13.097,78.018,12.471 M95.519,4.044l-5.861,27.712h5.473l5.899-27.712H95.519z"/>
	<path fill="#727375" d="M3.259,37c-0.237-0.188-0.54-0.281-0.909-0.281c-0.149,0-0.297,0.016-0.441,0.049   c-0.145,0.033-0.273,0.086-0.385,0.162c-0.113,0.076-0.202,0.178-0.27,0.305c-0.068,0.127-0.101,0.285-0.101,0.475   c0,0.178,0.048,0.322,0.146,0.434c0.097,0.111,0.227,0.201,0.389,0.271c0.162,0.07,0.345,0.129,0.55,0.176   c0.205,0.045,0.413,0.096,0.625,0.15c0.212,0.053,0.42,0.117,0.625,0.189c0.205,0.074,0.388,0.172,0.55,0.297   s0.292,0.281,0.389,0.471c0.097,0.189,0.146,0.428,0.146,0.713c0,0.309-0.064,0.572-0.191,0.791   c-0.127,0.221-0.291,0.398-0.49,0.537c-0.2,0.137-0.423,0.236-0.67,0.299s-0.492,0.094-0.737,0.094   c-0.299,0-0.583-0.041-0.85-0.121c-0.267-0.082-0.501-0.205-0.703-0.369c-0.202-0.166-0.362-0.377-0.479-0.633   c-0.117-0.258-0.176-0.562-0.176-0.914h0.674c0,0.244,0.044,0.453,0.131,0.629c0.087,0.176,0.202,0.32,0.344,0.436   c0.142,0.113,0.308,0.197,0.498,0.25c0.189,0.055,0.384,0.082,0.584,0.082c0.16,0,0.32-0.016,0.482-0.049s0.308-0.088,0.438-0.166   c0.13-0.078,0.235-0.186,0.315-0.32c0.08-0.135,0.12-0.309,0.12-0.52c0-0.201-0.049-0.363-0.146-0.486   c-0.097-0.125-0.227-0.227-0.389-0.305s-0.346-0.143-0.55-0.191c-0.205-0.049-0.413-0.098-0.625-0.15   c-0.212-0.051-0.42-0.109-0.625-0.178s-0.388-0.156-0.55-0.268s-0.292-0.254-0.389-0.43c-0.097-0.176-0.146-0.396-0.146-0.662   c0-0.293,0.055-0.545,0.165-0.758c0.11-0.215,0.256-0.391,0.438-0.527c0.182-0.139,0.389-0.242,0.621-0.309   c0.232-0.068,0.47-0.102,0.714-0.102c0.274,0,0.529,0.035,0.764,0.105c0.234,0.07,0.44,0.182,0.617,0.332   C3.938,36.66,4.078,36.85,4.18,37.08s0.158,0.504,0.168,0.824H3.674C3.635,37.486,3.496,37.186,3.259,37z M5.478,37.051v-0.844   h0.636v0.844H5.478z M6.114,37.807v4.195H5.478v-4.195H6.114z M7.812,37.807v0.617h0.015c0.289-0.477,0.706-0.715,1.25-0.715   c0.239,0,0.456,0.055,0.65,0.162c0.195,0.109,0.332,0.293,0.412,0.553c0.13-0.229,0.301-0.404,0.513-0.529   c0.212-0.123,0.445-0.186,0.7-0.186c0.195,0,0.371,0.023,0.528,0.068c0.157,0.047,0.292,0.117,0.404,0.215   c0.112,0.098,0.199,0.225,0.262,0.379c0.062,0.154,0.093,0.338,0.093,0.555v3.076h-0.636V39.25c0-0.129-0.01-0.252-0.03-0.365   c-0.021-0.113-0.058-0.211-0.113-0.295c-0.055-0.084-0.13-0.15-0.228-0.199c-0.097-0.049-0.224-0.072-0.378-0.072   c-0.314,0-0.562,0.096-0.741,0.291c-0.18,0.195-0.27,0.455-0.27,0.779v2.613H9.609V39.25c0-0.135-0.012-0.26-0.034-0.373   c-0.022-0.113-0.062-0.211-0.116-0.295s-0.128-0.15-0.221-0.195c-0.092-0.047-0.21-0.068-0.355-0.068   c-0.185,0-0.343,0.039-0.475,0.121c-0.132,0.08-0.24,0.178-0.322,0.291c-0.082,0.115-0.142,0.232-0.179,0.354   S7.85,39.307,7.85,39.389v2.613H7.214v-4.195H7.812z M14.368,37.807v0.568h0.015c0.105-0.234,0.27-0.402,0.494-0.508   s0.472-0.158,0.741-0.158c0.299,0,0.56,0.061,0.782,0.178c0.222,0.119,0.406,0.281,0.554,0.484   c0.147,0.201,0.258,0.436,0.333,0.701c0.075,0.266,0.112,0.547,0.112,0.844s-0.036,0.578-0.108,0.844s-0.182,0.496-0.329,0.693   s-0.332,0.354-0.554,0.467c-0.222,0.113-0.48,0.17-0.774,0.17c-0.095,0-0.201-0.01-0.318-0.031s-0.233-0.057-0.348-0.105   c-0.115-0.049-0.224-0.115-0.326-0.199s-0.188-0.188-0.258-0.312h-0.015V43.6h-0.636v-5.793H14.368z M16.654,39.295   c-0.047-0.186-0.12-0.354-0.217-0.498c-0.097-0.146-0.222-0.264-0.374-0.35c-0.152-0.086-0.331-0.129-0.535-0.129   c-0.214,0-0.396,0.045-0.546,0.137c-0.149,0.092-0.271,0.213-0.367,0.361c-0.095,0.148-0.164,0.318-0.206,0.508   c-0.042,0.189-0.063,0.381-0.063,0.576c0,0.205,0.022,0.404,0.067,0.596c0.045,0.191,0.116,0.361,0.214,0.508   c0.097,0.145,0.223,0.264,0.377,0.352c0.155,0.09,0.342,0.135,0.562,0.135s0.402-0.047,0.55-0.139   c0.147-0.092,0.266-0.213,0.355-0.365c0.09-0.15,0.155-0.324,0.195-0.52c0.04-0.193,0.06-0.395,0.06-0.6   C16.725,39.672,16.702,39.482,16.654,39.295z M18.933,36.207v5.795h-0.636v-5.795H18.933z M22.771,41.732   c-0.289,0.238-0.653,0.357-1.093,0.357c-0.309,0-0.577-0.053-0.804-0.162c-0.227-0.107-0.418-0.26-0.573-0.453   c-0.154-0.195-0.27-0.428-0.348-0.699c-0.077-0.27-0.121-0.564-0.131-0.885c0-0.318,0.045-0.609,0.134-0.875   c0.09-0.266,0.216-0.496,0.378-0.689c0.162-0.195,0.354-0.346,0.576-0.455c0.222-0.107,0.465-0.162,0.729-0.162   c0.344,0,0.63,0.076,0.857,0.23s0.409,0.352,0.546,0.59c0.137,0.238,0.232,0.496,0.284,0.777s0.074,0.551,0.063,0.805h-2.896   c-0.005,0.184,0.015,0.357,0.06,0.523c0.045,0.164,0.117,0.311,0.217,0.438c0.1,0.127,0.227,0.229,0.382,0.305   c0.154,0.076,0.336,0.113,0.546,0.113c0.27,0,0.49-0.068,0.663-0.203c0.172-0.135,0.285-0.34,0.34-0.617h0.629   C23.248,41.141,23.061,41.496,22.771,41.732z M22.618,39.039c-0.057-0.146-0.135-0.271-0.232-0.377s-0.212-0.189-0.344-0.252   c-0.132-0.062-0.278-0.092-0.438-0.092c-0.165,0-0.313,0.029-0.445,0.092c-0.132,0.062-0.246,0.148-0.341,0.256   c-0.095,0.109-0.169,0.234-0.225,0.377c-0.055,0.145-0.087,0.297-0.097,0.459h2.223C22.709,39.34,22.675,39.186,22.618,39.039z    M28.803,36.207c0.539,0,0.947,0.15,1.224,0.451s0.415,0.721,0.415,1.262s-0.138,0.963-0.415,1.266s-0.685,0.451-1.224,0.447   h-1.631v2.369H26.46v-5.795H28.803z M28.563,38.982c0.404,0.006,0.699-0.084,0.887-0.268c0.187-0.184,0.28-0.449,0.28-0.795   s-0.093-0.609-0.28-0.791c-0.188-0.182-0.483-0.271-0.887-0.271h-1.392v2.125H28.563z M34.744,41.984   c-0.11,0.07-0.262,0.105-0.457,0.105c-0.165,0-0.295-0.049-0.393-0.15c-0.098-0.1-0.146-0.264-0.146-0.49   c-0.175,0.227-0.378,0.391-0.61,0.49c-0.232,0.102-0.482,0.15-0.752,0.15c-0.175,0-0.341-0.021-0.498-0.064   c-0.157-0.043-0.293-0.111-0.407-0.203c-0.115-0.092-0.206-0.211-0.273-0.361c-0.067-0.148-0.101-0.328-0.101-0.539   c0-0.238,0.037-0.432,0.112-0.584c0.075-0.15,0.173-0.273,0.295-0.369c0.123-0.094,0.262-0.166,0.419-0.215   c0.157-0.049,0.318-0.09,0.482-0.121c0.174-0.039,0.341-0.066,0.498-0.086c0.157-0.02,0.296-0.047,0.415-0.082   c0.12-0.035,0.215-0.086,0.285-0.154c0.07-0.066,0.104-0.166,0.104-0.295c0-0.152-0.026-0.273-0.078-0.365   c-0.053-0.092-0.12-0.162-0.202-0.211c-0.082-0.049-0.175-0.082-0.277-0.098c-0.103-0.016-0.203-0.023-0.303-0.023   c-0.27,0-0.495,0.055-0.674,0.166c-0.18,0.109-0.277,0.32-0.292,0.629h-0.636c0.01-0.26,0.06-0.479,0.149-0.658   c0.09-0.178,0.209-0.322,0.359-0.434c0.15-0.111,0.321-0.191,0.513-0.24c0.192-0.049,0.398-0.072,0.618-0.072   c0.174,0,0.348,0.014,0.52,0.041c0.172,0.025,0.328,0.082,0.468,0.166c0.14,0.082,0.252,0.201,0.337,0.352   c0.084,0.15,0.127,0.348,0.127,0.592v2.152c0,0.162,0.008,0.281,0.026,0.357c0.018,0.074,0.076,0.113,0.176,0.113   c0.055,0,0.12-0.012,0.194-0.033V41.984z M33.711,39.834c-0.08,0.066-0.184,0.113-0.314,0.143s-0.266,0.053-0.408,0.072   c-0.142,0.02-0.285,0.041-0.43,0.064c-0.145,0.025-0.274,0.062-0.389,0.117s-0.208,0.131-0.281,0.23s-0.108,0.236-0.108,0.408   c0,0.113,0.021,0.207,0.063,0.285c0.042,0.078,0.098,0.143,0.165,0.191c0.067,0.047,0.146,0.082,0.236,0.104   c0.089,0.021,0.185,0.033,0.284,0.033c0.209,0,0.389-0.031,0.539-0.094c0.149-0.061,0.271-0.141,0.367-0.234   c0.094-0.094,0.165-0.195,0.209-0.307c0.044-0.109,0.067-0.213,0.067-0.311V39.834z M36.967,42.561   c-0.075,0.207-0.148,0.379-0.221,0.52c-0.072,0.141-0.152,0.256-0.239,0.346c-0.088,0.088-0.185,0.154-0.292,0.193   c-0.107,0.041-0.23,0.062-0.37,0.062c-0.075,0-0.15-0.006-0.225-0.018c-0.075-0.01-0.147-0.029-0.217-0.057v-0.633   c0.055,0.027,0.118,0.051,0.19,0.068c0.073,0.02,0.134,0.029,0.184,0.029c0.13,0,0.238-0.033,0.326-0.102   c0.087-0.068,0.153-0.164,0.198-0.287l0.262-0.707l-1.534-4.17h0.718l1.13,3.432h0.015l1.085-3.432h0.673L36.967,42.561z    M39.9,37.807v0.617h0.015c0.29-0.477,0.706-0.715,1.25-0.715c0.24,0,0.457,0.055,0.651,0.162c0.194,0.109,0.332,0.293,0.412,0.553   c0.13-0.229,0.301-0.404,0.513-0.529c0.212-0.123,0.445-0.186,0.7-0.186c0.194,0,0.37,0.023,0.527,0.068   c0.157,0.047,0.292,0.117,0.404,0.215s0.199,0.225,0.262,0.379c0.062,0.154,0.093,0.338,0.093,0.555v3.076h-0.636V39.25   c0-0.129-0.01-0.252-0.03-0.365c-0.02-0.113-0.058-0.211-0.112-0.295c-0.055-0.084-0.131-0.15-0.229-0.199   s-0.223-0.072-0.378-0.072c-0.314,0-0.561,0.096-0.741,0.291s-0.27,0.455-0.27,0.779v2.613h-0.636V39.25   c0-0.135-0.012-0.26-0.034-0.373c-0.022-0.113-0.061-0.211-0.116-0.295c-0.055-0.084-0.128-0.15-0.221-0.195   c-0.092-0.047-0.211-0.068-0.355-0.068c-0.185,0-0.343,0.039-0.475,0.121c-0.132,0.08-0.24,0.178-0.322,0.291   c-0.083,0.115-0.142,0.232-0.18,0.354s-0.056,0.223-0.056,0.305v2.613h-0.636v-4.195H39.9z M48.536,41.732   c-0.29,0.238-0.654,0.357-1.093,0.357c-0.309,0-0.578-0.053-0.805-0.162c-0.227-0.107-0.418-0.26-0.572-0.453   c-0.155-0.195-0.271-0.428-0.348-0.699c-0.078-0.27-0.122-0.564-0.131-0.885c0-0.318,0.045-0.609,0.135-0.875   s0.216-0.496,0.378-0.689c0.162-0.195,0.354-0.346,0.576-0.455c0.222-0.107,0.465-0.162,0.729-0.162c0.345,0,0.63,0.076,0.857,0.23   s0.409,0.352,0.546,0.59c0.137,0.238,0.232,0.496,0.284,0.777s0.074,0.551,0.064,0.805h-2.896c-0.005,0.184,0.015,0.357,0.06,0.523   c0.045,0.164,0.117,0.311,0.217,0.438c0.1,0.127,0.227,0.229,0.381,0.305s0.337,0.113,0.546,0.113c0.27,0,0.49-0.068,0.662-0.203   s0.286-0.34,0.34-0.617h0.629C49.012,41.141,48.825,41.496,48.536,41.732z M48.382,39.039c-0.057-0.146-0.134-0.271-0.232-0.377   c-0.097-0.105-0.212-0.189-0.344-0.252s-0.278-0.092-0.438-0.092c-0.165,0-0.313,0.029-0.445,0.092   c-0.132,0.062-0.246,0.148-0.34,0.256c-0.095,0.109-0.17,0.234-0.225,0.377c-0.055,0.145-0.087,0.297-0.098,0.459h2.223   C48.474,39.34,48.439,39.186,48.382,39.039z M50.526,37.807v0.664h0.015c0.264-0.508,0.683-0.762,1.257-0.762   c0.254,0,0.466,0.037,0.636,0.113c0.169,0.076,0.307,0.182,0.412,0.316c0.104,0.135,0.178,0.297,0.221,0.482   c0.042,0.188,0.063,0.395,0.063,0.621v2.76h-0.636v-2.84c0-0.26-0.07-0.467-0.209-0.617c-0.14-0.152-0.332-0.227-0.576-0.227   c-0.195,0-0.363,0.031-0.505,0.096c-0.143,0.066-0.261,0.158-0.355,0.277s-0.166,0.258-0.213,0.418   c-0.047,0.158-0.071,0.334-0.071,0.523v2.369h-0.636v-4.195H50.526z M55.854,37.807v0.607h-0.771v2.605   c0,0.08,0.006,0.146,0.019,0.195c0.012,0.049,0.036,0.086,0.071,0.113c0.035,0.027,0.084,0.045,0.146,0.053   c0.062,0.008,0.144,0.012,0.243,0.012h0.292v0.609h-0.486c-0.165,0-0.306-0.014-0.423-0.037c-0.117-0.025-0.212-0.068-0.285-0.135   c-0.072-0.064-0.126-0.156-0.161-0.275c-0.035-0.119-0.052-0.275-0.052-0.471v-2.67h-0.659v-0.607h0.659v-1.258h0.636v1.258H55.854   z M57.157,41.064c0.06,0.105,0.138,0.189,0.235,0.252c0.098,0.062,0.207,0.105,0.329,0.133c0.123,0.027,0.248,0.041,0.378,0.041   c0.1,0,0.204-0.008,0.314-0.025c0.11-0.016,0.211-0.045,0.303-0.088s0.168-0.107,0.229-0.191c0.06-0.084,0.089-0.191,0.089-0.32   c0-0.178-0.062-0.314-0.187-0.406c-0.125-0.092-0.281-0.166-0.468-0.223s-0.39-0.107-0.609-0.154   c-0.22-0.045-0.423-0.111-0.61-0.195s-0.343-0.201-0.468-0.352c-0.125-0.152-0.187-0.363-0.187-0.633   c0-0.211,0.044-0.393,0.131-0.545c0.087-0.15,0.2-0.273,0.337-0.369c0.137-0.094,0.292-0.164,0.464-0.211   c0.172-0.045,0.343-0.068,0.513-0.068c0.22,0,0.421,0.02,0.606,0.061c0.184,0.041,0.348,0.111,0.49,0.211   c0.142,0.1,0.255,0.236,0.34,0.406s0.135,0.383,0.149,0.637H58.9c-0.01-0.135-0.043-0.248-0.098-0.336   c-0.055-0.09-0.125-0.162-0.209-0.217c-0.084-0.053-0.178-0.092-0.281-0.117c-0.102-0.023-0.206-0.035-0.311-0.035   c-0.095,0-0.19,0.008-0.288,0.023c-0.097,0.016-0.186,0.045-0.266,0.086c-0.08,0.039-0.145,0.094-0.195,0.162   c-0.049,0.066-0.074,0.154-0.074,0.264c0,0.119,0.039,0.217,0.116,0.295s0.176,0.145,0.296,0.195   c0.12,0.051,0.254,0.094,0.404,0.131c0.15,0.035,0.299,0.07,0.449,0.109c0.16,0.037,0.316,0.084,0.468,0.137   c0.152,0.055,0.287,0.127,0.404,0.215c0.117,0.09,0.212,0.203,0.284,0.338s0.108,0.303,0.108,0.502   c0,0.256-0.049,0.467-0.146,0.633c-0.098,0.168-0.225,0.305-0.382,0.406c-0.157,0.104-0.334,0.174-0.531,0.215   c-0.197,0.041-0.393,0.061-0.587,0.061c-0.214,0-0.419-0.023-0.614-0.072c-0.195-0.049-0.367-0.129-0.516-0.24   c-0.149-0.109-0.27-0.256-0.359-0.438s-0.14-0.402-0.149-0.662h0.636C57.064,40.83,57.097,40.959,57.157,41.064z M65.011,41.887   c-0.277,0.137-0.563,0.203-0.857,0.203c-0.359,0-0.648-0.059-0.868-0.178s-0.389-0.262-0.509-0.43s-0.198-0.342-0.235-0.52   c-0.038-0.18-0.057-0.328-0.057-0.447c0-0.227,0.034-0.426,0.102-0.6s0.157-0.328,0.27-0.467c0.111-0.139,0.244-0.262,0.396-0.373   c0.151-0.111,0.312-0.215,0.482-0.312c-0.075-0.113-0.147-0.221-0.217-0.324c-0.07-0.104-0.134-0.207-0.191-0.312   c-0.057-0.105-0.102-0.217-0.135-0.332c-0.032-0.117-0.048-0.248-0.048-0.395c0-0.156,0.025-0.307,0.078-0.449   c0.053-0.145,0.13-0.271,0.232-0.383c0.102-0.109,0.228-0.199,0.378-0.264c0.149-0.064,0.321-0.098,0.516-0.098   c0.165,0,0.325,0.025,0.483,0.074c0.157,0.049,0.295,0.123,0.415,0.223c0.119,0.1,0.216,0.225,0.288,0.373s0.108,0.32,0.108,0.516   c0,0.174-0.027,0.334-0.082,0.482c-0.056,0.148-0.13,0.285-0.225,0.41s-0.202,0.236-0.322,0.336   c-0.119,0.102-0.244,0.191-0.374,0.271l0.966,1.275c0.1-0.303,0.156-0.604,0.172-0.9h0.606c-0.016,0.172-0.031,0.32-0.049,0.441   s-0.04,0.234-0.067,0.336c-0.027,0.104-0.062,0.205-0.102,0.305s-0.087,0.215-0.142,0.346l1.04,1.307h-0.831l-0.568-0.723   C65.505,41.549,65.287,41.752,65.011,41.887z M63.73,39.438c-0.112,0.08-0.211,0.174-0.296,0.275   c-0.085,0.104-0.151,0.219-0.202,0.346c-0.049,0.127-0.074,0.277-0.074,0.449c0,0.146,0.028,0.281,0.086,0.402   s0.134,0.225,0.229,0.309s0.203,0.15,0.325,0.197c0.122,0.049,0.248,0.074,0.378,0.074c0.244,0,0.463-0.062,0.655-0.188   c0.191-0.123,0.353-0.291,0.482-0.502l-1.228-1.6C63.961,39.277,63.843,39.355,63.73,39.438z M64.535,38.26   c0.085-0.064,0.162-0.137,0.231-0.219c0.07-0.08,0.128-0.172,0.173-0.271s0.067-0.211,0.067-0.336c0-0.168-0.056-0.312-0.165-0.434   c-0.109-0.123-0.259-0.184-0.449-0.184c-0.149,0-0.289,0.051-0.419,0.15s-0.194,0.256-0.194,0.467c0,0.086,0.017,0.172,0.049,0.26   c0.032,0.086,0.073,0.172,0.123,0.256c0.05,0.082,0.104,0.166,0.165,0.246c0.06,0.082,0.119,0.162,0.18,0.244   C64.37,38.385,64.45,38.326,64.535,38.26z M73.53,36.207v0.65h-2.979v1.842h2.776v0.648h-2.776v2.004h3.001v0.65h-3.712v-5.795   H73.53z M77.848,41.984c-0.109,0.07-0.262,0.105-0.456,0.105c-0.165,0-0.296-0.049-0.394-0.15c-0.097-0.1-0.146-0.264-0.146-0.49   c-0.175,0.227-0.378,0.391-0.61,0.49c-0.231,0.102-0.482,0.15-0.752,0.15c-0.175,0-0.34-0.021-0.497-0.064   s-0.294-0.111-0.408-0.203s-0.206-0.211-0.273-0.361c-0.066-0.148-0.101-0.328-0.101-0.539c0-0.238,0.037-0.432,0.112-0.584   c0.074-0.15,0.173-0.273,0.296-0.369c0.122-0.094,0.262-0.166,0.419-0.215s0.317-0.09,0.482-0.121   c0.175-0.039,0.34-0.066,0.498-0.086c0.157-0.02,0.295-0.047,0.415-0.082c0.119-0.035,0.214-0.086,0.284-0.154   c0.069-0.066,0.104-0.166,0.104-0.295c0-0.152-0.025-0.273-0.078-0.365s-0.12-0.162-0.202-0.211   c-0.083-0.049-0.175-0.082-0.277-0.098c-0.102-0.016-0.203-0.023-0.303-0.023c-0.27,0-0.494,0.055-0.673,0.166   c-0.18,0.109-0.277,0.32-0.293,0.629H74.36c0.01-0.26,0.06-0.479,0.15-0.658c0.089-0.178,0.209-0.322,0.358-0.434   s0.32-0.191,0.513-0.24s0.398-0.072,0.617-0.072c0.175,0,0.349,0.014,0.521,0.041c0.172,0.025,0.328,0.082,0.468,0.166   c0.14,0.082,0.252,0.201,0.337,0.352c0.084,0.15,0.127,0.348,0.127,0.592v2.152c0,0.162,0.009,0.281,0.026,0.357   c0.017,0.074,0.076,0.113,0.176,0.113c0.055,0,0.119-0.012,0.194-0.033V41.984z M76.815,39.834   c-0.08,0.066-0.186,0.113-0.314,0.143c-0.13,0.029-0.266,0.053-0.408,0.072c-0.142,0.02-0.285,0.041-0.43,0.064   c-0.146,0.025-0.274,0.062-0.39,0.117s-0.208,0.131-0.28,0.23s-0.108,0.236-0.108,0.408c0,0.113,0.021,0.207,0.063,0.285   c0.042,0.078,0.097,0.143,0.164,0.191c0.067,0.047,0.146,0.082,0.236,0.104s0.185,0.033,0.284,0.033   c0.209,0,0.389-0.031,0.538-0.094c0.15-0.061,0.272-0.141,0.367-0.234s0.165-0.195,0.209-0.307   c0.046-0.109,0.068-0.213,0.068-0.311V39.834z M79.037,41.064c0.06,0.105,0.139,0.189,0.235,0.252   c0.098,0.062,0.208,0.105,0.33,0.133s0.248,0.041,0.378,0.041c0.1,0,0.204-0.008,0.313-0.025c0.11-0.016,0.211-0.045,0.304-0.088   c0.092-0.043,0.168-0.107,0.229-0.191c0.06-0.084,0.089-0.191,0.089-0.32c0-0.178-0.062-0.314-0.187-0.406   c-0.125-0.092-0.28-0.166-0.468-0.223s-0.391-0.107-0.609-0.154c-0.22-0.045-0.424-0.111-0.61-0.195   c-0.188-0.084-0.343-0.201-0.468-0.352c-0.125-0.152-0.188-0.363-0.188-0.633c0-0.211,0.044-0.393,0.132-0.545   c0.087-0.15,0.199-0.273,0.336-0.369c0.138-0.094,0.292-0.164,0.465-0.211c0.172-0.045,0.343-0.068,0.513-0.068   c0.219,0,0.421,0.02,0.605,0.061s0.348,0.111,0.49,0.211s0.256,0.236,0.341,0.406c0.084,0.17,0.135,0.383,0.149,0.637h-0.636   c-0.011-0.135-0.043-0.248-0.098-0.336c-0.055-0.09-0.125-0.162-0.21-0.217c-0.084-0.053-0.178-0.092-0.28-0.117   c-0.103-0.023-0.206-0.035-0.311-0.035c-0.095,0-0.19,0.008-0.288,0.023s-0.186,0.045-0.266,0.086   c-0.08,0.039-0.145,0.094-0.194,0.162c-0.05,0.066-0.075,0.154-0.075,0.264c0,0.119,0.039,0.217,0.116,0.295   s0.176,0.145,0.296,0.195c0.119,0.051,0.254,0.094,0.404,0.131c0.149,0.035,0.299,0.07,0.448,0.109   c0.16,0.037,0.315,0.084,0.468,0.137c0.152,0.055,0.287,0.127,0.404,0.215c0.117,0.09,0.212,0.203,0.284,0.338   s0.108,0.303,0.108,0.502c0,0.256-0.049,0.467-0.146,0.633c-0.098,0.168-0.225,0.305-0.382,0.406   c-0.157,0.104-0.334,0.174-0.531,0.215s-0.394,0.061-0.588,0.061c-0.214,0-0.419-0.023-0.613-0.072s-0.367-0.129-0.517-0.24   c-0.149-0.109-0.27-0.256-0.358-0.438c-0.091-0.182-0.141-0.402-0.15-0.662h0.636C78.945,40.83,78.978,40.959,79.037,41.064z    M83.924,42.561c-0.074,0.207-0.148,0.379-0.221,0.52s-0.152,0.256-0.239,0.346c-0.088,0.088-0.185,0.154-0.292,0.193   c-0.107,0.041-0.23,0.062-0.37,0.062c-0.075,0-0.15-0.006-0.225-0.018c-0.075-0.01-0.147-0.029-0.217-0.057v-0.633   c0.055,0.027,0.118,0.051,0.19,0.068c0.072,0.02,0.134,0.029,0.184,0.029c0.13,0,0.238-0.033,0.325-0.102   c0.088-0.068,0.153-0.164,0.198-0.287l0.263-0.707l-1.534-4.17h0.718l1.13,3.432h0.016l1.085-3.432h0.673L83.924,42.561z    M90.494,36.207c0.115,0,0.238,0.002,0.371,0.006c0.132,0.002,0.263,0.01,0.393,0.023s0.251,0.033,0.362,0.061   c0.112,0.027,0.209,0.068,0.288,0.121c0.175,0.115,0.323,0.271,0.445,0.471c0.123,0.201,0.184,0.447,0.184,0.738   c0,0.309-0.068,0.576-0.206,0.801c-0.137,0.225-0.332,0.391-0.587,0.498v0.016c0.329,0.076,0.581,0.238,0.756,0.488   c0.175,0.248,0.262,0.551,0.262,0.908c0,0.211-0.035,0.416-0.104,0.617c-0.07,0.199-0.174,0.377-0.311,0.531   c-0.138,0.154-0.307,0.277-0.509,0.373c-0.202,0.094-0.436,0.143-0.7,0.143h-2.582v-5.795H90.494z M90.688,38.699   c0.404,0,0.695-0.078,0.872-0.232c0.177-0.152,0.266-0.385,0.266-0.693c0-0.205-0.029-0.367-0.09-0.486   c-0.06-0.119-0.142-0.211-0.247-0.275c-0.104-0.066-0.226-0.107-0.362-0.127c-0.138-0.018-0.283-0.027-0.438-0.027h-1.422v1.842   H90.688z M91.048,41.352c0.314,0,0.561-0.092,0.737-0.275s0.266-0.438,0.266-0.764c0-0.188-0.032-0.346-0.097-0.469   c-0.065-0.125-0.151-0.225-0.259-0.297s-0.23-0.125-0.37-0.154s-0.285-0.045-0.435-0.045h-1.624v2.004H91.048z M96.294,42.002   v-0.666h-0.016c-0.135,0.26-0.307,0.451-0.516,0.572c-0.21,0.121-0.457,0.182-0.741,0.182c-0.254,0-0.467-0.035-0.636-0.109   c-0.17-0.072-0.308-0.176-0.412-0.312c-0.104-0.135-0.178-0.295-0.221-0.482c-0.042-0.186-0.063-0.393-0.063-0.621v-2.758h0.636   v2.84c0,0.26,0.07,0.465,0.21,0.617c0.14,0.15,0.331,0.227,0.576,0.227c0.194,0,0.363-0.033,0.505-0.098   c0.143-0.064,0.261-0.156,0.355-0.275s0.166-0.26,0.214-0.418c0.047-0.16,0.07-0.334,0.07-0.523v-2.369h0.637v4.195H96.294z    M98.448,41.064c0.061,0.105,0.139,0.189,0.235,0.252c0.098,0.062,0.208,0.105,0.33,0.133s0.248,0.041,0.378,0.041   c0.1,0,0.204-0.008,0.314-0.025c0.109-0.016,0.21-0.045,0.303-0.088c0.092-0.043,0.168-0.107,0.229-0.191   c0.06-0.084,0.09-0.191,0.09-0.32c0-0.178-0.062-0.314-0.188-0.406s-0.28-0.166-0.468-0.223s-0.391-0.107-0.609-0.154   c-0.22-0.045-0.423-0.111-0.61-0.195s-0.343-0.201-0.468-0.352c-0.125-0.152-0.188-0.363-0.188-0.633   c0-0.211,0.044-0.393,0.132-0.545c0.087-0.15,0.199-0.273,0.336-0.369c0.138-0.094,0.292-0.164,0.465-0.211   c0.172-0.045,0.343-0.068,0.513-0.068c0.219,0,0.421,0.02,0.605,0.061s0.349,0.111,0.49,0.211c0.143,0.1,0.256,0.236,0.341,0.406   s0.135,0.383,0.149,0.637h-0.636c-0.011-0.135-0.043-0.248-0.098-0.336c-0.055-0.09-0.125-0.162-0.209-0.217   c-0.085-0.053-0.179-0.092-0.281-0.117c-0.103-0.023-0.206-0.035-0.311-0.035c-0.095,0-0.19,0.008-0.288,0.023   s-0.186,0.045-0.266,0.086c-0.08,0.039-0.145,0.094-0.194,0.162c-0.05,0.066-0.075,0.154-0.075,0.264   c0,0.119,0.039,0.217,0.116,0.295s0.176,0.145,0.296,0.195c0.119,0.051,0.254,0.094,0.404,0.131   c0.149,0.035,0.299,0.07,0.448,0.109c0.16,0.037,0.315,0.084,0.468,0.137c0.152,0.055,0.287,0.127,0.404,0.215   c0.117,0.09,0.212,0.203,0.284,0.338S101,40.576,101,40.775c0,0.256-0.048,0.467-0.146,0.633c-0.098,0.168-0.225,0.305-0.382,0.406   c-0.157,0.104-0.334,0.174-0.531,0.215s-0.393,0.061-0.588,0.061c-0.214,0-0.419-0.023-0.613-0.072s-0.367-0.129-0.517-0.24   c-0.149-0.109-0.269-0.256-0.358-0.438s-0.141-0.402-0.15-0.662h0.637C98.356,40.83,98.389,40.959,98.448,41.064z M101.854,37.051   v-0.844h0.636v0.844H101.854z M102.489,37.807v4.195h-0.636v-4.195H102.489z M104.188,37.807v0.664h0.016   c0.265-0.508,0.684-0.762,1.257-0.762c0.255,0,0.467,0.037,0.636,0.113c0.17,0.076,0.308,0.182,0.412,0.316   s0.178,0.297,0.221,0.482c0.042,0.188,0.063,0.395,0.063,0.621v2.76h-0.636v-2.84c0-0.26-0.07-0.467-0.21-0.617   c-0.14-0.152-0.332-0.227-0.576-0.227c-0.194,0-0.363,0.031-0.505,0.096c-0.143,0.066-0.261,0.158-0.355,0.277   s-0.166,0.258-0.213,0.418c-0.048,0.158-0.071,0.334-0.071,0.523v2.369h-0.637v-4.195H104.188z M110.601,41.732   c-0.289,0.238-0.653,0.357-1.092,0.357c-0.31,0-0.578-0.053-0.805-0.162c-0.228-0.107-0.418-0.26-0.572-0.453   c-0.155-0.195-0.271-0.428-0.349-0.699c-0.077-0.27-0.12-0.564-0.131-0.885c0-0.318,0.045-0.609,0.135-0.875   s0.216-0.496,0.378-0.689c0.162-0.195,0.354-0.346,0.576-0.455c0.223-0.107,0.466-0.162,0.73-0.162c0.344,0,0.629,0.076,0.856,0.23   c0.227,0.154,0.409,0.352,0.546,0.59c0.138,0.238,0.232,0.496,0.285,0.777c0.052,0.281,0.073,0.551,0.063,0.805h-2.896   c-0.005,0.184,0.016,0.357,0.06,0.523c0.045,0.164,0.117,0.311,0.217,0.438c0.101,0.127,0.228,0.229,0.382,0.305   c0.155,0.076,0.337,0.113,0.547,0.113c0.27,0,0.49-0.068,0.662-0.203s0.285-0.34,0.341-0.617h0.628   C111.077,41.141,110.891,41.496,110.601,41.732z M110.447,39.039c-0.057-0.146-0.135-0.271-0.231-0.377   c-0.098-0.105-0.212-0.189-0.345-0.252c-0.132-0.062-0.277-0.092-0.438-0.092c-0.164,0-0.312,0.029-0.445,0.092   c-0.132,0.062-0.246,0.148-0.34,0.256c-0.096,0.109-0.17,0.234-0.225,0.377c-0.056,0.145-0.088,0.297-0.098,0.459h2.223   C110.539,39.34,110.505,39.186,110.447,39.039z M112.479,41.064c0.06,0.105,0.138,0.189,0.235,0.252s0.207,0.105,0.329,0.133   s0.248,0.041,0.378,0.041c0.1,0,0.204-0.008,0.314-0.025c0.109-0.016,0.211-0.045,0.303-0.088c0.093-0.043,0.169-0.107,0.229-0.191   s0.09-0.191,0.09-0.32c0-0.178-0.062-0.314-0.188-0.406c-0.124-0.092-0.28-0.166-0.468-0.223c-0.187-0.057-0.39-0.107-0.609-0.154   c-0.22-0.045-0.423-0.111-0.61-0.195c-0.187-0.084-0.343-0.201-0.468-0.352c-0.124-0.152-0.187-0.363-0.187-0.633   c0-0.211,0.044-0.393,0.131-0.545c0.087-0.15,0.199-0.273,0.337-0.369c0.137-0.094,0.292-0.164,0.464-0.211   c0.172-0.045,0.343-0.068,0.513-0.068c0.22,0,0.422,0.02,0.606,0.061c0.184,0.041,0.348,0.111,0.49,0.211   c0.142,0.1,0.255,0.236,0.34,0.406s0.135,0.383,0.15,0.637h-0.637c-0.01-0.135-0.042-0.248-0.098-0.336   c-0.055-0.09-0.124-0.162-0.209-0.217c-0.085-0.053-0.179-0.092-0.281-0.117c-0.102-0.023-0.205-0.035-0.311-0.035   c-0.095,0-0.19,0.008-0.288,0.023c-0.097,0.016-0.186,0.045-0.266,0.086c-0.079,0.039-0.145,0.094-0.194,0.162   c-0.05,0.066-0.074,0.154-0.074,0.264c0,0.119,0.038,0.217,0.115,0.295c0.078,0.078,0.176,0.145,0.296,0.195   s0.254,0.094,0.404,0.131c0.149,0.035,0.299,0.07,0.449,0.109c0.159,0.037,0.315,0.084,0.467,0.137   c0.152,0.055,0.287,0.127,0.404,0.215c0.117,0.09,0.212,0.203,0.285,0.338c0.071,0.135,0.108,0.303,0.108,0.502   c0,0.256-0.049,0.467-0.146,0.633c-0.097,0.168-0.225,0.305-0.382,0.406c-0.156,0.104-0.334,0.174-0.53,0.215   c-0.198,0.041-0.394,0.061-0.588,0.061c-0.215,0-0.419-0.023-0.614-0.072c-0.194-0.049-0.366-0.129-0.516-0.24   c-0.149-0.109-0.27-0.256-0.359-0.438s-0.14-0.402-0.149-0.662h0.636C112.387,40.83,112.419,40.959,112.479,41.064z    M116.333,41.064c0.061,0.105,0.139,0.189,0.235,0.252c0.098,0.062,0.208,0.105,0.33,0.133s0.248,0.041,0.378,0.041   c0.1,0,0.204-0.008,0.314-0.025c0.109-0.016,0.21-0.045,0.303-0.088c0.092-0.043,0.168-0.107,0.229-0.191   c0.06-0.084,0.089-0.191,0.089-0.32c0-0.178-0.062-0.314-0.187-0.406s-0.28-0.166-0.468-0.223s-0.391-0.107-0.609-0.154   c-0.22-0.045-0.423-0.111-0.61-0.195s-0.343-0.201-0.468-0.352c-0.125-0.152-0.188-0.363-0.188-0.633   c0-0.211,0.044-0.393,0.132-0.545c0.087-0.15,0.199-0.273,0.336-0.369c0.138-0.094,0.292-0.164,0.465-0.211   c0.172-0.045,0.343-0.068,0.513-0.068c0.219,0,0.421,0.02,0.605,0.061s0.349,0.111,0.49,0.211c0.143,0.1,0.256,0.236,0.341,0.406   s0.135,0.383,0.149,0.637h-0.636c-0.011-0.135-0.043-0.248-0.098-0.336c-0.055-0.09-0.125-0.162-0.209-0.217   c-0.085-0.053-0.179-0.092-0.281-0.117c-0.103-0.023-0.206-0.035-0.311-0.035c-0.095,0-0.19,0.008-0.288,0.023   s-0.186,0.045-0.266,0.086c-0.08,0.039-0.145,0.094-0.194,0.162c-0.05,0.066-0.075,0.154-0.075,0.264   c0,0.119,0.039,0.217,0.116,0.295s0.176,0.145,0.296,0.195c0.119,0.051,0.254,0.094,0.404,0.131   c0.149,0.035,0.299,0.07,0.448,0.109c0.16,0.037,0.315,0.084,0.468,0.137c0.152,0.055,0.287,0.127,0.404,0.215   c0.117,0.09,0.212,0.203,0.284,0.338s0.108,0.303,0.108,0.502c0,0.256-0.048,0.467-0.146,0.633   c-0.098,0.168-0.225,0.305-0.382,0.406c-0.157,0.104-0.334,0.174-0.531,0.215s-0.394,0.061-0.588,0.061   c-0.214,0-0.419-0.023-0.613-0.072s-0.367-0.129-0.517-0.24c-0.149-0.109-0.27-0.256-0.358-0.438   c-0.091-0.182-0.141-0.402-0.15-0.662h0.636C116.241,40.83,116.273,40.959,116.333,41.064z"/>
</g>
</svg>